<svg width="24" height="24" viewBox="20 20 60 60" xmlns="http://www.w3.org/2000/svg"><path fill="currentColor" d="M35.2269 76.9069L34.5177 76.6706C34.2222 76.5524 33.9267 76.3752 33.8676 76.257C33.7494 76.1388 33.5721 75.9616 33.3948 75.9025C33.2175 75.8434 33.0402 75.6662 32.9811 75.4299L32.7448 74.8391C32.6857 74.78 32.6857 74.6618 32.6857 74.4846C32.6857 74.3074 32.6857 74.012 32.8039 73.5393C33.0402 72.4168 33.513 70.8216 33.8676 69.8763L34.3995 68.3403C34.7541 67.3359 35.5224 65.5044 36.0543 64.2637L36.5271 63.1412C36.5862 62.964 36.8226 62.3141 37.1181 61.7824C37.3545 61.1916 37.7091 60.5417 37.8273 60.1872C37.8864 59.9509 38.0046 59.7146 38.1228 59.7146C38.1819 59.7146 38.1819 59.7146 38.1819 59.6555L38.1228 59.5373L38.0046 59.4192L37.5909 59.5373L36.8817 59.4192C36.0543 59.301 35.286 58.8874 35.286 58.592V58.533C35.286 58.4148 35.286 58.3557 35.2269 58.3557C35.1678 58.2966 35.0496 58.1194 34.9314 57.824L34.5177 57.056C34.3404 56.8196 34.2813 56.347 34.2813 55.9334C34.2813 55.4017 34.3995 54.9291 34.5768 54.9291H34.6359L35.1087 54.8109C35.286 54.6928 35.5224 54.6928 35.6406 54.6928H35.877L38.241 54.5746L38.5365 54.5155L38.8319 54.5746C38.9501 54.5746 39.3047 54.5746 39.6002 54.5155L40.3685 54.3974C40.664 54.3383 40.7231 54.2201 41.4323 52.9204L42.0824 51.6206C42.2006 51.5024 42.3779 51.148 42.5552 50.7935C43.1462 49.6709 44.8009 46.7169 45.2146 46.1261L45.5101 45.5944C45.9829 44.6491 47.1649 42.7586 47.3422 42.7586C47.4013 42.7586 47.4604 42.7586 47.4604 42.6995C47.4604 42.5223 47.9923 41.3997 48.2287 41.2225L48.406 40.868L49.0561 39.8046C49.4107 39.2728 49.7062 38.8002 49.7062 38.682L49.9426 38.2094C50.1199 38.0322 50.5335 37.3823 50.9472 36.7915C52.8384 34.1329 53.5476 32.9513 53.5476 32.715C53.5476 32.6559 53.6067 32.5377 53.7249 32.4786C53.784 32.4196 54.1386 32.1242 54.4341 31.7106L55.3206 30.5881L55.7934 29.8791H55.8525C55.9116 29.8791 55.9707 29.82 55.9707 29.7609C56.0298 29.7019 56.3252 29.2292 56.7389 28.7566C57.1526 28.2249 57.5072 27.6931 57.5072 27.575C57.5663 27.2796 58.1573 26.6297 58.3346 26.6297H58.4528C58.571 26.6297 58.7483 26.3343 58.7483 26.1571C58.7483 26.0389 58.9847 25.8026 59.1029 25.8026H59.2211C59.2802 25.8026 59.3984 25.7435 59.4575 25.6253C59.6348 25.5072 59.6939 25.389 59.6939 25.3299H59.5166C59.5166 25.2709 59.753 25.0936 60.2849 24.621C60.935 24.0893 61.3487 23.8529 61.6442 23.8529H61.7033C61.9397 23.912 62.5897 24.3256 62.6488 24.5028C62.7079 24.5619 62.767 24.6801 62.8852 24.6801C63.1807 24.7391 64.0672 25.7435 64.7173 26.6888C65.3674 27.6341 65.4265 27.7522 65.4856 28.6384C65.5447 29.1111 65.5447 29.8791 65.5447 30.2927C65.4856 31.1198 64.8355 35.1963 64.4809 36.6142L61.7033 48.3712C61.3487 49.9663 60.8759 51.7978 60.7577 52.4477C60.5804 53.0385 60.5213 53.3339 60.5213 53.5112C60.5213 53.6293 60.5804 53.6884 60.6986 53.6884L60.8759 53.7475L60.6986 53.8066C60.5804 53.8066 60.5213 53.9247 60.4622 53.9838C60.4622 54.102 60.8168 54.161 61.0532 54.161C61.2305 54.161 61.3487 54.161 61.4078 54.102L61.6442 54.0429C61.7033 54.0429 61.8215 54.0429 61.8806 54.102L62.1169 54.161L62.5306 53.9838L62.8852 54.102L63.1807 54.161V54.102L63.2398 53.9838L63.358 54.102L63.5353 54.161L63.7717 54.102L64.1263 54.2201L64.3627 54.102C64.6582 54.102 65.2492 54.2792 65.3083 54.3974C65.3674 54.4564 65.6038 54.5155 65.9584 54.5155H66.3721C66.9631 54.5155 67.5541 54.5746 67.5541 54.6337L67.495 54.6928C67.3768 54.6928 67.2586 54.8109 67.2586 54.87V54.9291C67.2586 54.9882 67.1995 55.0472 67.0813 55.0472C66.9631 55.0472 66.7858 55.1063 66.7858 55.1654L66.8449 55.2836L67.1995 55.2245C67.495 55.2245 67.7905 55.2836 67.7905 55.4017C67.7905 55.4608 66.5494 55.579 66.1948 55.579H66.0175C66.0175 55.579 65.8993 55.579 65.8402 55.5199L65.4265 55.638L65.1901 55.8153L65.5447 55.8744L65.8402 55.8153L65.8993 55.9925C65.8993 56.1107 65.9584 56.2288 66.0175 56.2288L66.1357 56.2879C66.1357 56.347 66.0175 56.4061 65.8993 56.4061L65.131 56.2879L64.8355 56.347L64.4218 56.2879L63.4762 56.4061L63.0034 56.347L62.5306 56.4061L62.2942 56.4652C62.2351 56.4652 62.176 56.4061 62.1169 56.347L61.9987 56.2288L61.9397 56.2879C61.8806 56.347 61.8215 56.347 61.7033 56.347H61.5851C61.4078 56.347 61.2896 56.347 61.2305 56.4061L61.1123 56.4652L60.8759 56.347V56.5242L60.5213 56.4061L60.2849 56.4652L60.1076 56.5833L60.935 56.9378C60.9941 56.9378 60.9941 56.8787 60.9941 56.8196C60.9941 56.7606 61.0532 56.7015 61.1714 56.7015L61.2305 56.8196V56.8787L61.2896 56.9969C61.4078 56.9969 61.526 56.9378 61.5851 56.8787C61.5851 56.8196 61.8215 56.7606 61.9987 56.7015C62.2351 56.7015 62.3533 56.7015 62.3533 56.7606V56.8196C62.3533 56.9378 62.4124 56.9969 62.7079 56.9969H63.2398C63.7126 56.9969 64.1263 56.9378 64.1854 56.8787C64.1854 56.8196 64.4809 56.7606 64.7764 56.7606C65.3083 56.7606 65.9584 56.8787 66.0175 56.9969V57.056C66.0175 57.115 65.8993 57.1741 65.722 57.1741H65.5447L65.4856 57.115L65.6629 56.9969L64.9537 56.9378C64.7764 56.9378 64.5991 56.9969 64.4218 57.056C64.1854 57.1741 63.8308 57.2332 63.2398 57.2332H61.6442L61.2896 57.2923L61.0532 57.2332L60.8168 57.3514C60.6986 57.4695 60.4622 57.5286 60.4031 57.5286H60.2258C59.9303 57.5286 59.8712 57.7058 59.753 58.3557L59.4575 60.2463C59.3984 60.8371 59.2802 61.7233 59.2802 62.1368L59.1029 64.6182L58.9847 66.0361C58.7483 68.1039 58.6892 69.4628 58.6892 70.9398L58.7483 73.9529C58.7483 74.3664 58.6892 74.6618 58.571 74.6618H58.5119L58.0391 74.7209L57.7436 74.8391L57.6254 74.78C57.5072 74.7209 57.4481 74.7209 57.4481 74.6618C57.389 74.6618 57.389 74.6028 57.389 74.5437V74.4255L57.3299 74.3074C57.2708 74.3074 57.2117 74.3664 57.2117 74.4255H57.1526L57.0344 74.2483C56.9162 74.012 56.7389 73.8938 56.3843 73.7756C55.557 73.5984 54.7887 72.4759 54.7887 71.6487V71.5306C54.7887 71.1761 54.7887 70.9989 54.6114 70.8807L54.4932 70.6444L54.5523 70.4081L54.4932 70.0536C54.375 69.8173 54.375 69.4037 54.375 69.1674V67.7495C54.375 67.2768 54.4341 66.9814 54.5523 66.8633C54.6705 66.8042 54.6705 66.7451 54.6705 66.6269L54.5523 65.918L54.6114 65.6817L54.5523 65.6226C54.4932 65.6226 54.4932 65.5635 54.4932 65.5044C54.4932 65.3272 54.6114 65.0909 54.6705 65.0909C54.7296 65.0909 54.7887 65.0318 54.7887 64.9727L54.6114 64.3819C54.6114 64.2637 54.6705 64.2047 54.7296 64.1456C54.7887 64.0274 54.8478 63.6139 54.8478 63.2003C54.8478 62.964 54.8478 62.7867 54.7887 62.7277C54.7296 62.6686 54.7296 62.5504 54.7296 62.3732C54.7296 62.1369 54.7887 61.8414 54.8478 61.8414C54.9069 61.8414 55.0251 61.7824 55.0251 61.6642V61.546L54.7887 61.7233L54.7296 61.6642L54.966 61.0143L54.8478 60.7189L54.966 60.6598C55.0842 60.6008 55.1433 60.3644 55.2024 59.8327L55.2615 59.301L55.2024 59.0647V58.6511C55.2024 58.4739 55.1433 58.4739 54.966 58.3557L54.7887 58.2966C54.7296 58.2966 54.6705 58.3557 54.6705 58.4148C54.6114 58.533 54.1386 58.592 53.4294 58.592C52.7202 58.592 51.8928 58.592 51.5382 58.6511L49.8244 58.7102C49.2334 58.7102 48.9379 58.6511 48.6424 58.592L48.1105 58.533C47.815 58.533 47.5786 58.592 47.5786 58.7102C47.5195 58.7693 47.4604 58.7693 47.3422 58.7693H46.633L45.1555 58.9465C44.9191 58.9465 44.8009 58.8874 44.8009 58.8284L44.5646 58.7693C44.2691 58.7693 43.6781 58.8874 43.5599 59.0056C43.5008 59.0647 43.3826 59.0647 43.2644 59.0647H43.1462C43.028 59.0647 42.8507 59.1238 42.7916 59.1828L42.3188 59.301C42.2006 59.301 42.1415 59.3601 42.0824 59.5373V59.5964C42.0824 59.7146 42.1415 59.7736 42.2006 59.7736C42.2597 59.7736 42.3779 59.6555 42.437 59.5373L42.5552 59.3601H42.6143L42.5552 59.5964C42.4961 59.7736 42.437 59.9509 42.3188 60.01C42.2006 60.069 42.0824 60.3644 42.0824 60.4826C42.0824 60.5417 42.0824 60.6008 42.1415 60.6008C42.2006 60.6008 42.2006 60.6598 42.2006 60.7189C42.2006 60.8962 42.0233 61.1916 41.7869 61.487C41.6687 61.6642 41.5505 61.7824 41.4914 61.7824L41.3732 61.8414C41.3141 61.9596 41.255 62.1959 41.255 62.4323C41.255 62.7277 41.0777 62.964 40.8413 62.964H40.664C40.5458 62.964 40.4867 63.0231 40.4867 63.1412V63.2003C40.4867 63.3185 40.5458 63.3775 40.7231 63.3775C40.8413 63.3775 40.9004 63.4366 40.9004 63.4957C40.9004 63.6139 40.7822 63.7911 40.6049 63.9093C40.4867 63.9683 40.4276 64.0865 40.4276 64.0865V64.2047L40.3094 64.7364L38.891 68.1039C38.7728 68.2812 38.6547 68.5766 38.5956 68.7538L38.241 69.6991C38.1228 70.0536 38.0046 70.2308 37.9455 70.2308H37.8864C37.8273 70.2308 37.7682 70.349 37.7682 70.4671L37.8273 70.7035L37.7682 71.2943C37.65 71.5306 37.5909 71.8851 37.5318 72.0032C37.4727 72.2986 36.7635 74.6028 36.6453 74.8391L36.3498 75.6662C36.2316 76.0207 36.1725 76.1979 36.0543 76.1979L35.9361 76.1388L35.8179 76.3161C35.8179 76.3752 35.7588 76.4342 35.6997 76.4342H35.6406C35.5815 76.4342 35.4633 76.4933 35.4042 76.6706C35.3451 76.7887 35.3451 76.9069 35.2269 76.9069ZM60.8168 29.4065L60.935 29.3474L60.9941 29.2883L60.935 29.2292C60.8759 29.2292 60.8168 29.2292 60.7577 29.2883C60.7577 29.3474 60.7577 29.4065 60.8168 29.4065ZM60.4622 29.7609C60.5213 29.7609 60.5804 29.7019 60.5804 29.6428C60.5804 29.5837 60.5804 29.5246 60.5213 29.5246H60.4622C60.344 29.5246 60.2849 29.5837 60.2258 29.6428C60.2258 29.7019 60.2849 29.7609 60.4031 29.7609H60.4622ZM58.3937 29.2883C58.4528 29.2292 58.4528 29.1701 58.4528 29.1111L58.3346 29.1701C58.3346 29.2883 58.3346 29.2883 58.3937 29.2883ZM60.6395 30.0563L60.8759 29.9382C60.935 29.8791 60.9941 29.8791 60.9941 29.82L60.8168 29.8791C60.6395 29.9382 60.5213 29.9382 60.5213 29.9973L60.6395 30.0563ZM57.8027 29.7609C57.9209 29.7609 58.0391 29.7609 58.0391 29.7019L58.0982 29.6428L58.0391 29.5246C57.98 29.5246 57.8618 29.5246 57.8027 29.5837L57.6845 29.7019L57.8027 29.7609ZM45.7465 54.3383L46.2193 54.2792L47.5195 54.2201L47.1058 53.9838L47.4013 53.9247C47.5786 53.9247 47.815 53.9838 47.8741 54.0429H47.9923C48.1105 54.0429 48.1696 54.0429 48.2287 53.9838C48.2878 53.9247 48.406 53.9247 48.5242 53.9247C48.5833 53.9247 48.7015 53.9247 48.7015 54.0429C48.7015 54.102 48.7015 54.2201 48.7606 54.2201C48.8197 54.2201 50.1199 54.2201 51.0654 54.102H52.3065L54.2568 54.0429C54.6114 54.0429 55.2024 53.9838 55.2024 53.8656C55.2024 53.8066 55.3797 53.8066 55.557 53.8066C56.0298 53.8066 56.0889 53.7475 56.148 53.0976V52.684C56.0889 52.684 56.0889 52.7431 56.0298 52.9204L55.9707 53.0976L55.9116 53.0385L55.9707 52.5659C56.0298 52.2705 56.0889 52.0932 56.148 52.0932L56.207 52.3886L56.3252 52.0342C56.5025 51.6206 56.6798 50.5571 56.6798 50.0254C56.6798 49.8482 56.6798 49.6709 56.6207 49.6709L56.5616 49.5528H56.6798C56.798 49.5528 56.8571 49.4346 56.9162 49.2574C56.9162 49.0801 56.9162 48.962 56.8571 48.9029C56.798 48.9029 56.7389 48.7847 56.7389 48.6666C56.7389 48.5484 56.798 48.4303 56.8571 48.4303C56.9753 48.4303 57.0935 48.3121 57.0935 48.253V48.1349H57.0344C56.9162 48.1349 56.9162 48.0758 56.9162 48.0167L57.0344 47.8985C57.2117 47.8985 58.6301 41.9905 58.6301 41.3406V41.2816C58.6301 41.2816 58.5119 41.3407 58.4528 41.4588L58.3937 41.5179L58.4528 41.3406C58.4528 41.1634 58.5119 41.0452 58.571 41.0452L58.6892 41.1043L58.8074 40.9862V40.9271L58.6892 40.868L58.6301 40.7498L58.6892 40.5135L58.8074 40.3363L58.8665 40.6317L58.9256 40.5135C59.2802 39.5682 59.8712 36.8506 59.8712 36.5552L59.8121 36.3779H59.8712C60.0485 36.3779 60.2849 35.669 60.2849 35.2554V35.1372C60.2849 34.9009 60.344 34.4874 60.5804 34.0147C60.7577 33.6012 60.8168 33.3648 60.8168 33.1876C60.8168 33.1285 60.8168 33.0694 60.7577 33.0694H60.6395L60.7577 32.8331L60.5804 32.715L60.6395 32.6559C60.6986 32.5968 60.7577 32.4196 60.7577 32.3014L60.8168 32.0651H60.8759C60.935 32.0651 61.0532 31.8878 61.1123 31.7106V31.297C61.0532 31.297 60.9941 31.297 60.9941 31.1789L61.0532 30.7062C61.0532 30.4699 61.0532 30.3517 60.9941 30.3517C60.935 30.3517 60.7577 30.529 60.5213 30.8244C60.2849 31.1789 60.0485 31.3561 59.9894 31.3561L59.8712 31.297C59.8121 31.297 59.8121 31.3561 59.8121 31.4743C59.8121 31.5334 59.8121 31.5924 59.8712 31.6515C59.9894 31.7106 59.9894 31.7697 59.9894 31.8288H59.8121C59.753 31.8288 59.6939 31.8878 59.6348 32.006C59.6348 32.0651 59.4575 32.2423 59.2211 32.3605C59.1029 32.4196 59.0438 32.4196 59.0438 32.4786H59.2211L59.1029 32.715L59.162 32.8922H58.9847C58.8665 32.8922 58.8665 32.9513 58.7483 33.1876C58.7483 33.2467 58.6301 33.3648 58.5119 33.4239C58.3937 33.483 58.2755 33.5421 58.2755 33.6012C58.2164 33.7193 58.0982 33.8375 57.8618 33.8966C57.6254 34.0738 57.5072 34.192 57.4481 34.4874C57.389 34.6646 57.3299 34.7828 57.2708 34.7828H57.2117C57.1526 34.7828 57.0935 34.8418 56.9753 34.96C56.9162 35.0782 56.798 35.1963 56.7389 35.1963L56.5616 35.1372L56.5025 35.1963L56.6207 35.4326C56.6207 35.4917 56.5025 35.728 56.2661 36.0234C56.0298 36.3188 55.9116 36.4961 55.8525 36.4961L55.7343 36.2598L55.6161 36.3779L55.4388 36.2598L55.3206 36.3188C55.3206 36.3779 55.4388 36.4961 55.557 36.5552C55.6161 36.6142 55.6752 36.6733 55.6752 36.7324C55.6161 36.7915 55.557 36.9687 55.4979 37.205C55.4388 37.4414 55.3206 37.5595 55.2024 37.5595C55.0842 37.5595 54.966 37.6777 54.966 37.7368C54.966 37.8549 54.966 37.914 55.0251 37.914L55.2615 37.7958L55.1433 38.0322L55.0251 38.0912H54.9069C54.7887 38.0912 54.5523 38.3866 54.375 38.9184C54.3159 39.1547 54.1386 39.4501 54.0795 39.5092L53.784 40.0409C53.7249 40.3363 53.4885 40.5726 53.2521 40.7498C52.602 41.1634 52.3656 41.3407 52.3656 41.3997H52.4838V41.577C52.4838 41.6951 52.5429 41.8133 52.602 41.8133L52.7202 41.8724H52.602C52.4838 41.8724 52.4838 41.9905 52.4838 42.1087V42.2269L52.3065 42.1678L52.1292 42.2859C51.9519 42.4041 51.8928 42.4632 51.8928 42.5813L52.0701 42.8767C52.0701 42.9358 52.011 42.9949 51.8928 43.054C51.8337 43.1131 51.7746 43.1721 51.7746 43.2312L51.5973 43.3494C51.4791 43.4085 51.42 43.4085 51.42 43.6448V43.8811C51.42 44.0583 51.42 44.1765 51.3609 44.1765H51.3018C51.1836 44.1765 51.0654 44.3537 51.0063 44.531C50.9472 44.6491 50.7699 44.8264 50.6517 44.8855C50.5926 44.9445 50.5335 45.0036 50.5335 45.0627V45.1218L50.2972 45.5944L50.3562 45.7717L50.4744 45.8307H50.3562C50.2971 45.8307 50.1199 45.9489 50.0017 46.0671C49.8244 46.3625 49.8244 46.3625 49.6471 46.8351C49.5289 47.0714 49.4107 47.1896 49.3516 47.1896C49.2925 47.1896 49.2925 47.1896 49.2925 47.2487V47.3077C49.2925 47.3668 49.2334 47.485 49.1152 47.6031C48.9379 47.6622 48.8788 47.8395 48.8788 47.9576C48.8788 48.0167 48.8788 48.0758 48.8197 48.0758C48.7015 48.0758 48.7015 48.1349 48.7015 48.3121C48.7015 48.4893 48.6424 48.5484 48.4651 48.5484H48.2287C48.0514 48.5484 47.8741 48.5484 47.8741 48.6666V48.7257C47.8741 48.7847 47.9332 48.8438 48.0514 48.8438C48.1105 48.8438 48.2287 48.7847 48.2287 48.7257L48.3469 48.6666L48.406 48.7847C48.406 48.962 48.2287 49.2574 48.1105 49.2574H48.0514C47.9332 49.2574 47.815 49.4346 47.7559 49.73C47.5195 50.3799 46.9285 51.5615 46.633 51.9751L46.3375 52.5659C46.3375 52.7431 46.2784 52.8613 46.1602 52.8613L45.9829 53.1567C45.9829 53.2748 45.9238 53.393 45.8647 53.393H45.7465V53.4521L45.5101 54.2201V54.2792L45.7465 54.3383ZM58.6301 30.7062C58.6892 30.7062 58.7483 30.6471 58.8074 30.4699C58.8074 30.2927 58.8074 30.2336 58.7483 30.2336L58.6301 30.2927C58.571 30.3517 58.5119 30.4108 58.5119 30.4699V30.529C58.5119 30.6471 58.571 30.7062 58.6301 30.7062ZM58.3346 31.0607C58.3937 31.0016 58.4528 30.9425 58.4528 30.8835V30.8244H58.3346C58.2755 30.8835 58.2164 30.9425 58.2164 31.0016C58.2164 31.0607 58.2164 31.0607 58.3346 31.0607ZM58.9847 31.4743L59.1029 31.3561L59.162 31.238H59.1029C59.0438 31.238 58.9847 31.297 58.9256 31.3561C58.9256 31.4152 58.9256 31.4743 58.9847 31.4743ZM57.7436 31.5334L57.9209 31.4743C58.0982 31.3561 58.1573 31.297 58.1573 31.238H58.0982C58.0391 31.238 57.98 31.297 57.9209 31.4152L57.7436 31.5334ZM59.3393 32.1242L59.4575 32.0651L59.5166 32.006L59.3984 31.9469C59.3393 31.9469 59.2802 31.9469 59.2802 32.006C59.2802 32.0651 59.2802 32.1242 59.3393 32.1242ZM57.2708 32.3014L57.5072 32.1242L57.6254 32.006L57.5072 31.9469C57.4481 31.9469 57.3299 32.006 57.2708 32.1242V32.3014ZM57.9209 32.8331C57.98 32.8331 58.0391 32.8331 58.0982 32.774C58.0982 32.715 58.0982 32.6559 58.0391 32.6559L57.9209 32.715L57.8618 32.774L57.9209 32.8331ZM58.571 32.9513C58.6301 32.8922 58.6301 32.8331 58.6301 32.774L58.5119 32.8331C58.5119 32.9513 58.5119 32.9513 58.571 32.9513ZM56.2661 33.483C56.4434 33.483 56.5616 33.3648 56.798 33.0104L57.0935 32.5377C57.0935 32.4786 57.0935 32.4786 57.0344 32.4786L56.9162 32.5377C56.798 32.5968 56.6798 32.6559 56.6798 32.774C56.6207 32.8922 56.5025 33.0694 56.3252 33.1285C56.148 33.3058 56.0889 33.3648 56.0889 33.4239L56.2661 33.483ZM58.5119 33.2467C58.571 33.2467 58.571 33.1876 58.571 33.1285H58.5119L58.4528 33.1876V33.2467H58.5119ZM55.1433 32.715V32.5377C55.0842 32.5377 55.0842 32.5377 55.0842 32.5968V32.715H55.1433ZM60.344 34.1329H60.2849V34.0738C60.2849 34.0147 60.2849 33.9556 60.344 33.9556L60.4031 34.0738L60.344 34.1329ZM57.1526 34.0147C57.2117 34.0147 57.2708 33.9556 57.2708 33.8375C57.2708 33.7193 57.2708 33.5421 57.2117 33.4239V33.3058C57.1526 33.3648 57.1526 33.4239 57.1526 33.6012L57.0935 33.8966L57.1526 34.0147ZM53.7249 32.715V32.5377C53.6658 32.5377 53.6658 32.5968 53.6658 32.6559V32.715H53.7249ZM55.2615 34.96L55.4979 34.9009C55.6752 34.7828 55.7934 34.6055 55.8525 34.4874C55.8525 34.3692 55.9707 34.251 56.0298 34.192C56.207 34.1329 56.3252 33.8375 56.3252 33.7193C56.3252 33.6602 56.3252 33.6012 56.2661 33.6012C56.207 33.6012 56.0298 33.7193 55.9116 33.8375L55.4979 34.4283C55.3206 34.6646 55.2024 34.8418 55.2024 34.9009C55.2024 34.96 55.2024 34.96 55.2615 34.96ZM56.9162 34.7237C56.9753 34.7237 56.9753 34.6055 56.9753 34.5464V34.4874H56.9162L56.8571 34.7237H56.9162ZM54.5523 34.3692V34.251H54.4932V34.3692H54.5523ZM49.7062 43.5266C49.7653 43.5266 49.9426 43.4085 50.0608 43.2312L50.2972 42.8177C50.4744 42.4632 51.2427 41.2225 51.8337 40.4544C51.9519 40.2181 53.0157 38.5639 53.1339 38.2685C53.2521 38.0322 53.3112 37.9731 53.9022 37.146C54.4932 36.3188 55.1433 35.3145 55.1433 35.1372C55.0842 35.1372 54.966 35.2554 54.9069 35.3736C54.8478 35.4917 54.7296 35.6099 54.6705 35.6099H54.6114V35.669C54.6114 35.728 54.5523 35.9053 54.4341 36.0825C53.8431 36.7324 53.4885 37.2641 53.4885 37.3823C53.4885 37.5004 53.3703 37.6186 53.2521 37.6777C53.1339 37.7368 53.0748 37.8549 53.0157 37.9731C52.9566 38.2685 52.8975 38.4457 52.7793 38.4457H52.602L52.6611 38.5639L52.7793 38.682L52.6611 38.8002C52.5429 38.8593 52.4838 38.9184 52.4247 39.0365C52.4247 39.0956 52.2474 39.3319 52.0701 39.5092C51.8337 39.7455 51.6564 40.0409 51.5973 40.2181C51.5973 40.3363 51.42 40.6317 51.2427 40.8089C51.0654 40.9862 50.9472 41.1634 50.9472 41.2225C50.9472 41.3406 50.8881 41.4588 50.829 41.577C50.7108 41.6951 50.5926 41.8724 50.5926 41.9315L50.2972 42.345C50.2381 42.4632 50.1199 42.5813 50.1199 42.6404V42.6995C50.1199 42.7586 50.0608 42.8767 49.9426 42.9949C49.8244 43.1131 49.7062 43.2312 49.6471 43.3494V43.4085C49.6471 43.5266 49.6471 43.5266 49.7062 43.5266ZM53.1339 35.4326C53.2521 35.4326 53.4294 35.3145 53.4885 35.1963L53.6067 34.9009H53.5476C53.4294 34.9009 53.1339 35.1963 53.0748 35.3145V35.3736C53.0748 35.4326 53.0748 35.4326 53.1339 35.4326ZM52.6611 35.1963C52.7202 35.1963 52.8975 35.0782 52.9566 34.96C52.9566 34.9009 52.9566 34.9009 52.8975 34.9009L52.7793 34.96C52.6611 35.0191 52.602 35.1372 52.602 35.1963H52.6611ZM55.7343 35.7871L55.7934 35.728V35.669L55.6752 35.728C55.6752 35.7871 55.7343 35.7871 55.7343 35.7871ZM55.9707 36.0825V35.9053C55.9116 35.9053 55.9116 35.9053 55.9116 35.9644V36.0825H55.9707ZM59.5166 37.3823V37.146C59.5757 37.0278 59.5757 36.9687 59.6348 36.9687C59.6348 37.0869 59.5757 37.2641 59.5166 37.3823ZM52.7202 36.1416L52.8384 36.0825L52.7793 35.9644C52.7202 35.9644 52.7202 35.9644 52.7202 36.0234V36.1416ZM55.3206 36.9687V36.7915C55.2615 36.7915 55.2615 36.7915 55.2615 36.8506V36.9096C55.2615 36.9687 55.2615 36.9687 55.3206 36.9687ZM58.9847 39.2728L59.0438 38.7411C59.162 38.3866 59.2802 38.0912 59.3393 38.0912L59.3984 38.1503L59.2802 38.682C59.1029 39.0956 59.0438 39.2728 58.9847 39.2728ZM52.1292 37.2641C52.1883 37.2641 52.2474 37.205 52.3065 37.146C52.4247 37.0869 52.4838 36.9687 52.4838 36.9096H52.4247C52.3656 36.9096 52.3065 36.9096 52.2474 36.9687L52.1883 37.0278V36.9687C52.1883 36.8506 52.1883 36.8506 52.1292 36.8506C52.0701 36.8506 52.0701 36.9687 52.0701 37.0869L52.1292 37.2641ZM51.7746 37.3823L51.8928 37.2641L51.9519 37.146H51.8928L51.7155 37.3232C51.7155 37.3823 51.7155 37.3823 51.7746 37.3823ZM52.3065 37.7368C52.3656 37.7368 52.3656 37.6186 52.3656 37.6186C52.3656 37.5595 52.3065 37.5595 52.3065 37.5595L52.2474 37.6777V37.7368H52.3065ZM51.5973 37.7958C51.6564 37.7958 51.6564 37.6777 51.6564 37.6186C51.6564 37.5595 51.5973 37.5595 51.5973 37.5595L51.5382 37.6777C51.5382 37.7368 51.5382 37.7958 51.5973 37.7958ZM53.9613 38.8593C54.0795 38.8593 54.1386 38.8002 54.1977 38.7411C54.3159 38.5639 54.3159 38.4457 54.3159 38.3866C54.2568 38.3866 54.1977 38.3866 54.1386 38.4457C54.0204 38.5639 53.9022 38.682 53.9022 38.7411L53.9613 38.8593ZM54.6705 38.7411H54.6114V38.682C54.6114 38.5639 54.6705 38.5639 54.6705 38.5639C54.7296 38.5639 54.7296 38.5639 54.7296 38.623C54.7296 38.623 54.7296 38.7411 54.6705 38.7411ZM51.42 39.1547C51.4791 39.1547 51.4791 39.0365 51.5382 38.9184V38.7411L51.42 38.8002L51.3609 38.9774L51.42 39.1547ZM51.1245 39.5092L51.1836 39.391V39.2138L51.0063 39.4501L51.0654 39.5092H51.1245ZM50.4744 39.391C50.5926 39.391 50.5926 39.391 50.5926 39.3319C50.5335 39.3319 50.5335 39.3319 50.5335 39.2728L50.4153 39.3319L50.4744 39.391ZM51.0063 40.2772L51.1245 40.2181L51.5382 39.8636H51.3609C51.1836 39.8636 51.0654 40.0409 51.0063 40.2181V40.2772ZM50.6517 39.8046L50.7108 39.7455C50.7108 39.6864 50.7108 39.6864 50.6517 39.6864H50.5926L50.6517 39.8046ZM52.7793 40.3363C52.7793 40.2772 52.7202 40.2181 52.6611 40.159H52.602V40.2181C52.6611 40.2772 52.6611 40.3363 52.7202 40.3363H52.7793ZM52.8975 40.5135C52.9566 40.4544 52.9566 40.3954 52.9566 40.3363L52.8384 40.3954L52.8975 40.5135ZM62.2942 42.6404C62.3533 42.6404 62.3533 42.5813 62.3533 42.5223L62.2942 42.4632L62.2351 42.5813C62.2351 42.6404 62.2942 42.6404 62.2942 42.6404ZM58.3346 42.0496H58.2755L58.3346 41.8724L58.3937 41.7542C58.3937 41.8724 58.3937 41.9905 58.3346 42.0496ZM50.829 40.2772L50.8881 40.2181L50.7699 40.1L50.6517 40.0409V40.1C50.6517 40.159 50.7699 40.2772 50.829 40.2772ZM51.9519 41.5179C52.011 41.5179 52.1292 41.3997 52.2474 41.2225C52.4247 41.0452 52.5429 40.7499 52.5429 40.6317L52.602 40.5726H52.5429C52.4838 40.5726 52.4247 40.6908 52.2474 40.9271C51.9519 41.3407 51.8337 41.4588 51.8337 41.5179H51.9519ZM50.6517 40.7498C50.7699 40.7498 50.829 40.6317 50.829 40.5135V40.3954L50.7699 40.4544C50.7108 40.5135 50.6517 40.5135 50.5926 40.5135L50.4744 40.4544L50.3562 40.5135L50.179 40.7498H50.2381C50.2972 40.7498 50.3563 40.7498 50.4153 40.6908L50.5335 40.5726L50.5926 40.6317C50.5926 40.7499 50.5926 40.7498 50.6517 40.7498ZM49.588 41.0452C49.6471 41.0452 49.7653 40.9271 49.7653 40.7498L49.8244 40.5726L49.7653 40.4544L49.6471 40.5135L49.4698 41.0452H49.588ZM50.179 41.1043C50.2381 41.1043 50.2972 41.1043 50.2972 41.0452L50.3562 40.9862L50.2381 40.9271C50.1199 40.9271 50.0608 40.9271 50.0608 40.9862V41.0452L50.1199 41.1043H50.179ZM58.0391 43.5857H57.98V43.5266C57.98 43.4675 57.98 43.4085 58.0391 43.4085L58.0982 43.5266L58.0391 43.5857ZM48.9379 43.054C48.997 43.054 49.0561 42.9949 49.0561 42.9358V42.8767L48.9379 42.8177C48.8788 42.8767 48.8197 42.9358 48.8197 42.9949C48.8197 43.054 48.8197 43.054 48.8788 43.054H48.9379ZM48.6424 43.054L48.7015 42.9358C48.7015 42.8767 48.6424 42.8177 48.5833 42.8177C48.5242 42.8177 48.5242 42.8767 48.5242 42.9358L48.6424 43.054ZM48.2878 42.9949C48.3469 42.9949 48.3469 42.9949 48.3469 42.9358L48.2287 42.7586H48.1696L48.2878 42.9949ZM48.406 45.7126L48.9379 45.0036C49.2925 44.531 49.4698 44.1174 49.5289 43.9402V43.8811C49.5289 43.7629 49.4698 43.7039 49.4698 43.7039L49.2925 43.822L49.2334 43.8811L49.0561 43.822L48.9379 43.6448L49.0561 43.4085L48.8788 43.4675C48.7015 43.5266 48.6424 43.7039 48.6424 43.8811C48.6424 43.9402 48.6424 43.9993 48.7015 43.9993C48.7606 43.9993 48.8197 43.9402 48.8788 43.8811L48.9379 43.822L48.997 43.8811V43.9993C48.997 44.2947 48.7606 45.0036 48.5833 45.1218L48.406 45.4763L48.3469 45.7126H48.406ZM57.4481 45.6535V45.4763C57.4481 45.4172 57.4481 45.3581 57.5072 45.3581V45.5353L57.4481 45.6535ZM48.0514 44.4128C48.1105 44.4128 48.2287 44.2947 48.3469 44.1174L48.4651 43.8811H48.3469C48.1696 43.9993 47.9923 44.2356 47.9923 44.3537L48.0514 44.4128ZM50.179 44.6491C50.2381 44.5901 50.2381 44.531 50.2381 44.4128C50.2381 44.3537 50.2381 44.3537 50.179 44.3537L50.1199 44.5901L50.179 44.6491ZM57.2708 46.5397V46.3034L57.389 46.0671L57.3299 46.4806L57.2708 46.5397ZM47.5195 44.2356C47.5786 44.2356 47.6377 44.1765 47.6968 44.1174L47.7559 44.0583L47.6968 43.9993H47.6377C47.5195 43.9993 47.4013 44.1174 47.4013 44.1765L47.4604 44.2356H47.5195ZM50.1199 45.3581C50.179 45.3581 50.2381 45.299 50.2972 45.2399V45.1218L50.179 45.2399L50.1199 45.3581ZM57.0935 47.0714L57.0344 47.0123L57.2117 46.8351C57.2708 46.8351 57.2708 46.8942 57.2708 46.9533C57.2117 47.0123 57.1526 47.0714 57.0935 47.0714ZM56.9162 47.6622V47.5441C56.9162 47.485 56.9753 47.485 57.0344 47.485L57.0935 47.5441L57.0344 47.6031L56.9162 47.6622ZM46.8103 45.5944L46.8694 45.4763C46.8694 45.4172 46.8694 45.3581 46.8103 45.3581C46.7512 45.3581 46.6921 45.3581 46.6921 45.4763L46.8103 45.5944ZM49.1743 46.0671C49.2334 46.0671 49.2334 46.008 49.2334 45.9489H49.1743L49.1152 46.008V46.0671H49.1743ZM60.5804 49.0801L60.6986 49.0211L60.6395 48.9029C60.6395 48.9029 60.5804 48.9029 60.5804 48.962V49.0801ZM46.3966 49.2574C46.3966 49.2574 46.5739 49.0211 46.7512 48.6666C46.9285 48.3712 47.1649 48.0167 47.2831 47.8985L47.4604 47.5441V47.485C47.4604 47.4259 47.4604 47.4259 47.5195 47.4259C47.6377 47.4259 48.1105 46.3625 48.1105 46.1261V46.0671C48.0514 46.0671 47.9332 46.2443 47.7559 46.5397L47.5786 46.9533C47.4604 47.1896 47.3422 47.3077 47.3422 47.3077C47.2831 47.3077 47.224 47.3668 47.1649 47.485C47.1649 47.6031 47.0467 47.8395 46.8694 48.0167C46.6921 48.3712 46.3966 49.0211 46.3966 49.1983V49.2574ZM46.4557 46.1852L46.633 45.9489L46.5739 45.8307C46.5739 45.8307 46.5739 45.7717 46.5148 45.7717C46.5148 45.7717 46.4557 45.8307 46.4557 45.9489V46.1852ZM47.1058 46.1261C47.1649 46.1261 47.224 46.1261 47.224 46.0671L47.1058 46.008H47.0467L47.1058 46.1261ZM46.8103 46.8351V46.776C46.8103 46.7169 46.7512 46.7169 46.7512 46.7169L46.633 46.776L46.8103 46.8351ZM56.7389 49.1983H56.6798V49.1392L56.7389 49.0211L56.798 49.0801C56.798 49.0801 56.798 49.1983 56.7389 49.1983ZM46.042 47.0714C46.1011 47.0714 46.1011 47.0123 46.1602 46.8351V46.5988L46.042 46.6579L45.9238 46.9533C45.9829 47.0714 45.9829 47.0714 46.042 47.0714ZM48.4651 47.7213L48.5242 47.6622C48.6424 47.6031 48.6424 47.5441 48.6424 47.485H48.5242C48.4651 47.485 48.406 47.5441 48.406 47.6031V47.6622C48.406 47.7213 48.406 47.7213 48.4651 47.7213ZM45.5101 47.6622C45.5692 47.6622 45.6283 47.6622 45.6283 47.6031L45.5692 47.4259C45.451 47.4259 45.3919 47.485 45.3919 47.5441C45.3919 47.6031 45.451 47.6622 45.5101 47.6622ZM56.207 51.1479L56.148 51.0889L56.207 51.0298C56.2661 50.9707 56.3252 50.9707 56.3843 50.9707L56.3252 51.0889L56.207 51.1479ZM44.9782 48.7847L45.2737 48.6075L45.1555 48.5484H45.0373L44.9191 48.6075C44.9191 48.7257 44.9191 48.7847 44.9782 48.7847ZM47.5195 49.3755C47.5786 49.3755 47.6377 49.3755 47.6968 49.3165V49.1983L47.5786 49.2574L47.5195 49.3755ZM44.8009 49.1983C44.86 49.1983 44.9191 49.1392 44.9191 49.0801L44.8009 48.8438L44.7418 49.0211C44.7418 49.1392 44.7418 49.1983 44.8009 49.1983ZM45.451 51.0298L45.6283 50.7935L45.9238 50.2027C45.9238 50.0254 46.042 49.8482 46.1602 49.7891C46.2784 49.73 46.3966 49.6119 46.3966 49.4937V49.4346C46.3966 49.3755 46.3966 49.3755 46.3375 49.3755H46.2784C46.2193 49.3755 46.1011 49.4937 45.9829 49.6709L45.5692 50.2617C45.451 50.439 45.3919 50.7344 45.3919 50.8525C45.3919 50.9707 45.3919 51.0298 45.451 51.0298ZM47.0467 49.6709L47.1058 49.6119L47.0467 49.4937C46.9876 49.4937 46.9876 49.5528 46.9876 49.6119V49.6709H47.0467ZM47.4013 50.0254L47.4604 49.9073V49.73C47.4013 49.73 47.4013 49.7891 47.4013 49.8482V50.0254ZM59.9894 52.9204V52.7431C59.9303 52.7431 59.9303 52.7431 59.9303 52.8022V52.8613L59.9894 52.9204ZM47.0467 50.3208C47.1058 50.3208 47.1649 50.2617 47.224 50.2027C47.224 50.1436 47.224 50.0845 47.1649 50.0845L46.9876 50.2617L47.0467 50.3208ZM67.0222 54.8109L67.0813 54.7518C67.0813 54.6928 67.0222 54.6928 67.0222 54.6928L66.904 54.7518L67.0222 54.8109ZM44.3282 49.6119C44.3873 49.6119 44.3873 49.5528 44.3873 49.4937H44.3282L44.2691 49.6119H44.3282ZM66.0175 54.87L66.313 54.7518L66.1948 54.6928L65.6038 54.7518L66.0175 54.87ZM45.0373 50.3208C45.1555 50.3208 45.2146 50.2617 45.2146 50.2027C45.2146 50.1436 45.1555 50.0845 45.0964 50.0845C45.0373 50.0845 44.9782 50.1436 44.9782 50.2027V50.3208H45.0373ZM59.8121 53.8656C59.8712 53.8656 59.9303 53.7475 59.9894 53.6884C59.9894 53.5702 59.9303 53.5112 59.8712 53.5112H59.8121L59.6939 53.5702L59.6348 53.7475C59.6348 53.8066 59.6939 53.8656 59.753 53.8656H59.8121ZM66.2539 55.2836L66.3721 55.2245L66.4312 55.1063C66.3721 55.1063 66.313 55.1063 66.2539 55.1654V55.2836ZM65.3674 55.3426L65.4856 55.2836L65.3674 55.2245H65.3083L65.3674 55.3426ZM67.3177 55.9925L67.2586 55.9334L67.3768 55.8744L67.4359 55.9334C67.4359 55.9925 67.4359 55.9925 67.3177 55.9925ZM44.4464 50.9116L44.5055 50.7935L44.4464 50.7344C44.3873 50.7344 44.3873 50.7344 44.3873 50.7935C44.3873 50.9116 44.3873 50.9116 44.4464 50.9116ZM46.5148 51.5024C46.5739 51.5024 46.5739 51.3843 46.5739 51.3252V51.2661C46.5148 51.2661 46.5148 51.2661 46.5148 51.3252V51.5024ZM66.4312 55.9925H66.3721C66.313 55.9925 66.313 55.9334 66.313 55.9334L66.3721 55.8744L66.4903 55.9334C66.4903 55.9925 66.4903 55.9925 66.4312 55.9925ZM64.9537 55.9334V55.6971C64.9537 55.638 64.8946 55.579 64.8355 55.579H64.54C64.3627 55.638 64.2445 55.6971 64.2445 55.7562C64.2445 55.8744 64.6582 55.9334 64.8355 55.9334H64.9537ZM46.3375 51.7978C46.3966 51.7978 46.3966 51.7978 46.3966 51.7388V51.6206C46.3375 51.6206 46.2784 51.6206 46.2193 51.6797C46.2193 51.7387 46.2193 51.7978 46.2784 51.7978H46.3375ZM65.4265 56.2288L65.6629 56.1698L65.722 56.1107L65.4856 56.0516C65.4265 56.0516 65.3083 56.0516 65.3083 56.1107C65.3083 56.1698 65.3674 56.2288 65.4265 56.2288ZM63.7126 55.6971V55.638H63.5353L63.6535 55.6971H63.7126ZM66.5494 56.5242L66.313 56.4061L66.6085 56.347L66.904 56.4061C66.9631 56.4061 66.9631 56.4652 66.9631 56.4652C66.904 56.5242 66.7267 56.5242 66.5494 56.5242ZM55.7343 54.0429L55.9116 53.9838C55.9116 53.9247 55.8525 53.9247 55.7343 53.8656C55.6752 53.8656 55.557 53.9247 55.557 53.9838C55.557 54.0429 55.6161 54.0429 55.7343 54.0429ZM62.8852 55.7562C62.9443 55.6971 62.9443 55.638 62.9443 55.579H62.8852L62.8261 55.638C62.8261 55.6971 62.8261 55.7562 62.8852 55.7562ZM43.9145 53.6293C44.0327 53.6293 44.0918 53.5112 44.1509 53.3339C44.21 53.1567 44.3282 52.9794 44.3873 52.9204L44.8009 52.2114L45.0373 51.6206L44.9782 51.5024C44.9191 51.5024 44.8009 51.5615 44.8009 51.6797L44.4464 52.2705C44.21 52.5659 44.0918 52.8022 44.0918 52.9794C44.0918 53.2158 44.0327 53.3339 43.9736 53.393C43.8554 53.4521 43.7963 53.5112 43.7963 53.5702L43.9145 53.6293ZM63.5944 56.0516C63.6535 56.0516 63.7126 55.9925 63.7126 55.9334V55.8153C63.6535 55.8153 63.5944 55.8744 63.5353 55.9334L63.4762 55.9925L63.5944 56.0516ZM61.8215 55.8744C61.8806 55.8744 61.9988 55.8744 62.0578 55.8153V55.7562C62.0578 55.6971 62.0578 55.6971 61.9987 55.6971H61.9397L61.8215 55.7562L61.7624 55.8153L61.8215 55.8744ZM43.3826 51.7388C43.5008 51.7388 43.619 51.6797 43.619 51.5615V51.4434C43.619 51.4434 43.5599 51.4433 43.5599 51.5024L43.3235 51.6206L43.3826 51.7388ZM63.4171 56.2879C63.4171 56.2879 63.358 56.1698 63.2989 56.1698C63.2989 56.1107 63.2398 56.1107 63.2398 56.1107C63.2398 56.1107 63.1807 56.1107 63.1807 56.1698C63.1807 56.2288 63.2398 56.2879 63.2989 56.2879H63.4171ZM45.8647 52.3886C45.9238 52.3296 45.9238 52.2705 45.9238 52.2114L45.8056 52.2705C45.8056 52.3886 45.8647 52.3886 45.8647 52.3886ZM52.8384 53.8656H52.4838L52.5429 53.8066L52.6611 53.7475L52.7793 53.8066L52.8384 53.8656ZM51.1245 53.9247C51.0654 53.9247 51.0063 53.9247 51.0063 53.8656L51.1836 53.8066H51.3018V53.8656C51.3018 53.9247 51.1836 53.9247 51.1245 53.9247ZM65.131 57.2332H65.0128L65.0719 57.1741C65.131 57.115 65.1901 57.115 65.2492 57.115H65.3083C65.3083 57.1741 65.2492 57.2332 65.131 57.2332ZM43.6781 52.3886L43.7963 52.3296C43.7963 52.2705 43.7372 52.2705 43.7372 52.2705H43.619L43.6781 52.3886ZM42.7916 52.3886L42.9689 52.3296V52.2705L42.9098 52.1523C42.8507 52.1523 42.7916 52.2114 42.7916 52.2705V52.3886ZM62.8852 56.8787L62.6488 56.8196L62.7079 56.7606H62.8261L62.8852 56.8787ZM49.7062 54.0429H49.588L49.6471 53.9247H49.8835C49.8835 53.9838 49.8244 53.9838 49.7062 54.0429ZM45.451 53.2158L45.5101 53.0976V52.9204L45.451 53.0385V53.2158ZM61.7624 57.056L62.0578 56.9969L62.176 56.9378V56.8787H61.9397C61.7624 56.8787 61.6442 56.9378 61.6442 56.9378V56.9969C61.6442 57.056 61.6442 57.056 61.7624 57.056ZM49.1743 54.102C49.0561 54.0429 48.997 54.0429 48.997 53.9838L49.2925 53.9247L49.3516 53.9838C49.3516 54.0429 49.2334 54.102 49.1743 54.102ZM60.0485 56.9378L60.2258 56.7606L60.1667 56.7015C60.1076 56.7015 60.0485 56.7606 59.9894 56.8196C59.9894 56.8787 59.9894 56.9378 60.0485 56.9378ZM60.5213 56.9969V56.9378H60.344L60.4622 56.9969H60.5213ZM47.7559 54.2201C47.8741 54.2201 47.8741 54.2201 47.8741 54.161L47.815 54.102H47.6968L47.7559 54.2201ZM61.9397 57.6468H61.8806V57.5877C61.8806 57.5286 61.8806 57.4695 61.9397 57.4695V57.6468ZM42.9098 53.7475L43.028 53.6884L43.0871 53.6293L42.9689 53.5702C42.9098 53.5702 42.8507 53.5702 42.8507 53.6293C42.8507 53.6884 42.8507 53.7475 42.9098 53.7475ZM43.6781 54.102V53.9838H43.619V54.102H43.6781ZM55.4388 56.9969C55.557 56.9969 55.6161 56.9969 55.6161 56.9378C55.6161 56.8787 55.557 56.8787 55.4979 56.8196L55.2024 56.8787C55.2024 56.9378 55.2615 56.9378 55.4388 56.9969ZM54.3159 56.7606L54.375 56.7015C54.375 56.6424 54.3159 56.6424 54.3159 56.6424L54.1977 56.7015L54.3159 56.7606ZM54.0204 56.7606L54.0795 56.6424L54.0204 56.5833C54.0204 56.5833 53.9613 56.5833 53.9613 56.6424C53.9613 56.7606 53.9613 56.7606 54.0204 56.7606ZM54.8478 56.9969L54.966 56.9378L54.8478 56.8787C54.7887 56.8787 54.7296 56.8787 54.6705 56.9378L54.6114 56.9969H54.8478ZM55.2615 58.0012V57.9422C55.2024 57.8831 55.1433 57.8831 55.0842 57.8831C54.8478 57.8831 54.7887 57.8831 54.7887 57.9422L54.9069 58.0012H55.2615ZM53.1339 58.0603L53.2521 58.0012L53.193 57.9422C53.1339 57.9422 52.9566 57.9422 52.8384 58.0012L52.7202 58.0603H53.1339ZM52.2474 58.1194C52.4247 58.1194 52.602 58.1194 52.602 58.0603L52.2474 57.9422C52.0701 57.9422 51.9519 57.9422 51.8928 58.0012L52.2474 58.1194ZM50.3562 58.533V58.4739C50.3562 58.4739 50.3562 58.4148 50.2972 58.4148L50.179 58.4739L50.2972 58.533H50.3562ZM54.966 60.01V59.8327C54.966 59.7146 55.0251 59.6555 55.0251 59.6555L54.966 60.01ZM43.2053 58.1194C43.2644 58.1194 43.3235 58.1194 43.3235 58.0603V58.0012C43.3235 57.9422 43.2644 57.8831 43.2053 57.8831L43.0871 57.824C42.9689 57.824 42.9098 57.8831 42.9098 57.9422C42.9098 58.0012 42.9689 58.0603 43.0871 58.1194H43.2053ZM54.966 62.4323L55.0251 62.3141L54.966 62.255C54.9069 62.255 54.9069 62.255 54.9069 62.3141V62.3732L54.966 62.4323ZM40.7231 60.069C40.8413 60.01 40.9595 59.8327 41.0186 59.6555C41.1368 59.4782 41.1368 59.3601 41.1368 59.3601L40.9595 59.4192C40.7822 59.5373 40.6049 59.7736 40.6049 59.9509C40.6049 60.01 40.664 60.069 40.7231 60.069ZM39.482 59.7736C39.5411 59.7736 39.5411 59.7736 39.5411 59.7146V59.6555C39.5411 59.5964 39.5411 59.5964 39.6002 59.5964C39.7184 59.5964 39.7775 59.5373 39.7775 59.4782C39.7775 59.4782 39.7775 59.4192 39.7184 59.4192L39.6002 59.4782L39.3638 59.6555C39.3638 59.7146 39.4229 59.7736 39.482 59.7736ZM39.1274 63.4957L39.2456 63.4366C39.3638 63.4366 39.482 63.2003 39.482 63.0231L39.8366 62.1368L40.3094 61.1916L40.7231 60.2463L40.664 60.1872C40.5458 60.1872 40.3685 60.4235 40.3685 60.6008L39.6002 62.3732L39.3047 62.7867L39.2456 62.964L39.3638 63.0231L39.1274 63.4957ZM41.3141 61.1916C41.3732 61.1916 41.4914 61.0734 41.5505 61.0143L41.6096 60.8371C41.5505 60.8371 41.4914 60.8371 41.4323 60.8962C41.3141 60.9552 41.1959 61.0734 41.1959 61.1325C41.1959 61.1916 41.1959 61.1916 41.3141 61.1916ZM38.3001 62.5504V62.3732C38.241 62.3732 38.241 62.3732 38.241 62.4323V62.4913L38.3001 62.5504ZM40.0139 64.5591C40.073 64.5591 40.1321 64.5591 40.1321 64.5001C40.1321 64.441 40.1321 64.3228 40.073 64.2637H40.0139C39.9548 64.2637 39.9548 64.2637 39.9548 64.3819V64.441C39.9548 64.5001 39.9548 64.5591 40.0139 64.5591ZM38.5365 64.8545C38.5956 64.8545 38.5956 64.7955 38.6547 64.7364C38.7728 64.6773 38.8319 64.5001 38.8319 64.441V64.3228H38.7728C38.7138 64.3228 38.5956 64.5001 38.5956 64.6773L38.5365 64.8545ZM38.3001 65.6226L38.4774 65.5044V65.2681H38.4183C38.3592 65.2681 38.3001 65.3272 38.3001 65.3863V65.6226ZM39.1865 66.0361V65.9771H39.0092L39.1274 66.0361H39.1865ZM38.1228 66.0361C38.1819 65.9771 38.1819 65.918 38.1819 65.8589L38.0637 65.918L38.1228 66.0361ZM37.8273 66.686L37.8864 66.6269C37.9455 66.5679 38.0046 66.3906 38.0046 66.2725L37.9455 66.2134L37.8273 66.686ZM37.7091 67.1587L37.7682 67.0405L37.7091 66.9223H37.65C37.5909 66.9223 37.5909 66.9223 37.5909 66.9814V67.0405C37.65 67.0996 37.65 67.1587 37.7091 67.1587ZM37.3545 67.8085C37.4136 67.8085 37.4727 67.7495 37.5318 67.6313V67.395C37.4727 67.395 37.4136 67.4541 37.3545 67.5722L37.2954 67.7495L37.3545 67.8085ZM38.4183 68.8129V68.6357C38.3592 68.6357 38.3592 68.6357 38.3592 68.6947V68.7538L38.4183 68.8129ZM36.9999 68.872L37.1181 68.8129L37.059 68.3403C36.9999 68.3403 36.9999 68.3993 36.9408 68.5175C36.9408 68.6947 36.9408 68.8129 36.9999 68.872ZM38.0046 70.1127L38.0637 70.0536L37.8864 69.8763V69.9354C37.9455 70.0536 37.9455 70.1127 38.0046 70.1127Z
"/></svg>